PathFileType	4	(X/Y/Z)	Run_200 02
DataRate	CameraRate	NumFrames	NumMarkers	Units	OrigDataRate	OrigDataStartFrame	OrigNumFrames
120	120	8	41	mm	120	1	125
Frame#	Time	LASI			RASI			LPSI			RPSI			RTH1			RTH3			LTH1			LTH2			LTH3			RTB1			RTB2			RTB3			LTB1			LTB2			LTB3			RCAL			RTOE			RMT5			LCAL			LTOE			LMT5			LACR			RACR			CLAV			C7			RUA1			RUA2			RUA3			RLEL			RMEL			LUA1			LUA2			LUA3			LLEL			LMEL			RFAsuperior			RFAradius			RFAulna			LFAsuperior			LFAradius			LFAulna		
		X1	Y1	Z1	X2	Y2	Z2	X3	Y3	Z3	X4	Y4	Z4	X5	Y5	Z5	X6	Y6	Z6	X7	Y7	Z7	X8	Y8	Z8	X9	Y9	Z9	X10	Y10	Z10	X11	Y11	Z11	X12	Y12	Z12	X13	Y13	Z13	X14	Y14	Z14	X15	Y15	Z15	X16	Y16	Z16	X17	Y17	Z17	X18	Y18	Z18	X19	Y19	Z19	X20	Y20	Z20	X21	Y21	Z21	X22	Y22	Z22	X23	Y23	Z23	X24	Y24	Z24	X25	Y25	Z25	X26	Y26	Z26	X27	Y27	Z27	X28	Y28	Z28	X29	Y29	Z29	X30	Y30	Z30	X31	Y31	Z31	X32	Y32	Z32	X33	Y33	Z33	X34	Y34	Z34	X35	Y35	Z35	X36	Y36	Z36	X37	Y37	Z37	X38	Y38	Z38	X39	Y39	Z39	X40	Y40	Z40	X41	Y41	Z41	

1	  0.008333	896.153347	1026.669347	-379.355570	887.814352	1025.281697	-149.896077	736.056921	1063.345610	-318.288942	723.993059	1060.400914	-220.472495	850.499641	857.785998	-88.644547	917.426958	608.743412	-147.148885	829.013906	832.064565	-434.999085	856.027096	717.124632	-407.008848	762.476945	618.290080	-400.763851	994.197797	388.026811	-220.831508	963.043346	327.859525	-153.830311	980.755623	267.271348	-224.298456	679.588315	409.548293	-326.972452	589.372468	403.831900	-396.621504	533.948430	318.845312	-329.976598	885.319725	 97.420131	-224.226197	1089.012347	111.607514	-263.731829	1079.328902	 85.508901	-171.941838	381.333608	332.329868	-328.272390	435.335260	136.451043	-288.355310	400.251704	131.233033	-372.221900	885.158423	1490.853003	-441.260717	800.165792	1485.815877	-65.567736	900.674105	1477.758450	-219.035042	787.237296	1534.609282	-275.538126	701.656626	1379.854247	-26.385079	642.199926	1394.843475	-70.085456	636.351778	1320.291088	-12.026033	581.250006	1268.558608	 -5.497792	567.068967	1256.476790	-87.117437	844.949422	1362.380079	-512.882670	778.768203	1318.830845	-526.844328	847.418050	1275.505128	-536.408654	807.153054	1200.003262	-561.884221	742.808803	1198.157108	-500.568442	659.120689	1167.261157	 -4.189969	735.102029	1079.858984	-50.709565	681.639988	1041.921816	-25.458365	909.456217	1171.664634	-486.783771	962.008107	1196.019530	-373.658562	983.625781	1137.938334	-406.078532	
2	  0.016667	895.899307	1019.405611	-379.210725	887.222082	1018.838602	-148.949676	735.640466	1055.125345	-318.636055	723.020321	1052.994601	-220.636750	850.308789	851.613238	-88.685028	917.216583	602.291404	-147.406656	832.403655	824.213428	-434.912799	861.742927	709.779009	-408.085135	770.489671	609.403856	-401.578450	991.855723	380.771011	-221.998306	957.493635	320.831087	-155.919052	974.767978	260.056954	-226.274798	688.472902	403.719162	-327.397744	596.465084	402.670353	-397.804243	538.620840	318.752958	-331.616847	873.414918	 98.343685	-226.101108	1078.075963	 97.863992	-266.186428	1066.474267	 75.700662	-173.153442	384.530954	337.878884	-327.259834	437.210824	140.371422	-294.017102	400.949550	138.190786	-377.585028	884.429761	1483.540139	-440.898980	802.992509	1477.817440	-63.877664	901.772048	1470.082223	-218.741895	787.975402	1527.647853	-274.386207	705.754794	1370.173877	-24.213766	645.323200	1385.199374	-66.216189	641.206183	1309.805031	 -9.425344	586.525264	1257.886249	 -2.351379	571.121968	1245.955534	-83.583195	842.580269	1355.350104	-511.688264	775.760550	1312.520844	-524.842709	843.756637	1268.092419	-534.189795	802.329192	1193.247752	-559.883708	738.931375	1192.218006	-497.787140	665.402521	1157.375532	 -2.358456	741.544865	1070.931660	-50.232698	688.865783	1032.441786	-24.242148	905.420612	1162.857828	-486.668385	960.270670	1185.412642	-374.134418	980.190018	1127.297753	-407.461977	
3	  0.025000	895.515050	1011.825533	-378.983309	886.210740	1012.193327	-148.223701	734.870761	1046.613132	-318.835980	721.656995	1045.441269	-220.715328	849.989576	845.283961	-88.238147	917.400145	596.441366	-147.743901	835.610773	815.860475	-434.771899	867.297186	702.147863	-409.452596	778.458243	600.180480	-402.549877	989.926508	374.414452	-223.445564	953.158891	314.803488	-158.025527	968.747855	253.909158	-228.431401	697.770649	398.154411	-327.704385	604.232422	400.986262	-399.192651	543.938142	318.516760	-333.182872	860.876002	 99.400054	-227.788037	1066.089667	 86.744117	-268.334866	1053.084579	 68.206598	-174.168555	388.720128	343.043042	-326.264340	439.826796	143.993031	-299.616671	402.615169	144.911992	-382.933521	883.565812	1476.024200	-440.811952	805.881673	1469.432543	-62.088315	902.980584	1462.250065	-218.490544	788.653401	1520.372846	-273.336388	709.971862	1360.078921	-21.999452	648.540866	1375.098957	-62.283473	646.233192	1298.909452	 -6.743105	592.002873	1246.751963	  0.905137	575.522322	1234.865559	-80.014675	840.010525	1347.848158	-510.598941	772.587817	1305.830776	-522.830906	839.879022	1260.215981	-531.883596	797.310883	1186.221906	-557.942647	734.952395	1185.943592	-495.019689	671.927676	1147.081847	 -0.501955	748.260038	1061.711092	-49.758455	696.418957	1022.575993	-23.059885	901.201170	1153.672666	-486.733473	958.355212	1174.276884	-374.837380	976.560396	1116.230937	-409.303885	
4	  0.033333	894.882002	1003.814948	-378.587561	884.562179	1005.317816	-147.784376	733.504953	1037.641224	-318.832928	719.736437	1037.647224	-220.707411	849.419601	839.020324	-87.108808	918.339400	591.502950	-148.105213	838.567545	806.948206	-434.538909	872.593788	694.239130	-411.200387	786.368187	590.637163	-403.665248	988.360483	369.469111	-225.272707	950.430509	310.443992	-160.019944	962.552054	249.501018	-230.685249	707.723081	393.030204	-327.822983	613.054126	398.495692	-400.845786	550.310046	318.066530	-334.649256	847.371673	100.607778	-229.151131	1052.542274	 79.593200	-269.937234	1038.878488	 64.027014	-174.859904	394.500898	347.558375	-325.361490	443.649771	147.129711	-305.053561	405.934180	151.200317	-388.240734	882.465703	1468.247136	-441.162298	808.855262	1460.455940	-60.118139	904.367929	1454.289273	-218.295630	789.317555	1512.818880	-272.362877	714.379273	1349.288844	-19.734460	651.888255	1364.233798	-58.229557	651.501825	1287.323346	 -3.945071	597.809546	1234.885273	  4.350342	580.337079	1222.982786	-76.298781	837.112547	1339.643627	-509.691319	769.128612	1298.509148	-520.848496	835.596202	1251.582088	-529.394420	791.966036	1178.795248	-556.081025	730.768799	1179.194828	-492.261926	678.840895	1136.133998	  1.401611	755.419105	1052.011900	-49.319685	704.505470	1012.102693	-21.951908	896.652390	1143.873760	-487.074382	956.135164	1162.329328	-375.953851	972.574379	1104.439507	-411.724418	
5	  0.041667	893.914432	995.525670	-378.000481	882.344142	998.421250	-147.497557	731.493804	1028.266044	-318.732183	717.385730	1029.638194	-220.728092	848.484903	833.331580	-85.507703	920.094631	587.363597	-148.301053	841.342565	798.026159	-434.224043	877.637244	686.493559	-413.176613	794.258928	581.268988	-404.765612	986.594714	365.842651	-227.308947	948.549147	307.822534	-161.637833	955.916483	246.842719	-232.707594	718.358345	388.412474	-327.751727	622.937461	395.269562	-402.627387	557.848779	317.413742	-336.040115	832.938937	101.841611	-230.134860	1037.595740	 76.055902	-270.885134	1023.881864	 62.554443	-175.194627	401.948169	351.306574	-324.681353	448.834244	149.731245	-310.198257	411.255395	156.891851	-393.443299	881.084161	1460.336316	-441.910693	811.886172	1450.949506	-57.949502	905.920431	1446.438771	-218.148693	790.122964	1505.429706	-271.315175	719.019714	1337.733450	-17.477008	655.350434	1352.508589	-53.988569	656.984095	1274.962878	 -1.058529	604.012073	1222.270547	  8.015801	585.368607	1210.447545	-72.258644	833.845325	1330.897016	-508.968043	765.318138	1290.544118	-518.978401	830.795546	1242.230916	-526.655707	786.243512	1171.048683	-554.262831	726.288655	1172.097857	-489.493606	686.186792	1124.506448	  3.354920	763.077897	1041.814723	-48.997284	713.187335	1001.039133	-20.981828	891.659851	1133.438879	-487.683299	953.543546	1149.598070	-377.581925	968.095286	1091.826631	-414.488875	
6	  0.050000	892.585312	987.284563	-377.330086	879.826433	991.864629	-147.132125	729.002568	1018.820915	-318.773530	714.918392	1021.616460	-220.951971	847.085396	828.525423	-83.907052	922.115082	583.605760	-148.148906	844.029538	789.976448	-433.898737	882.525637	679.641188	-415.124146	802.221793	572.834204	-405.727489	983.902794	362.913833	-229.162155	946.004212	306.360976	-162.631680	948.522499	245.283759	-234.173927	729.573505	384.297654	-327.537201	633.660095	391.679586	-404.295609	566.475315	316.602286	-337.390851	817.812680	102.906933	-230.764042	1021.782505	 74.695552	-271.236941	1008.286073	 62.371061	-175.219675	410.756047	354.257982	-324.341093	455.387036	151.823417	-314.939260	418.715300	161.828854	-398.426819	879.442477	1452.539060	-442.818472	814.916927	1441.201073	-55.683825	907.528402	1439.010390	-218.047786	791.213691	1498.769355	-270.061993	723.965288	1325.567525	-15.358280	658.930260	1340.020860	-49.487258	662.673747	1261.939917	  1.845332	610.709923	1209.063599	 11.883820	590.460268	1197.480044	-67.772657	830.219722	1322.131494	-508.330096	761.139999	1282.220483	-517.259686	825.510897	1232.622242	-523.711928	780.162780	1163.250004	-552.412358	721.466425	1164.961812	-486.703533	694.005070	1112.331122	  5.323088	771.236118	1031.238415	-48.905136	722.453283	989.588349	-20.225109	886.127573	1122.539379	-488.490344	950.537261	1136.260640	-379.683333	962.993263	1078.486296	-417.308065	
7	  0.058333	890.943599	979.465784	-376.786487	877.293928	986.017636	-146.527261	726.348170	1009.899607	-319.168861	712.620840	1013.980909	-221.495284	845.157081	824.388380	-82.742047	923.299689	579.788000	-147.651123	846.592003	783.469554	-433.656032	887.406913	674.323566	-416.857088	810.361854	565.941680	-406.587226	979.805196	359.876227	-230.392840	941.417012	305.092241	-162.921649	940.092652	243.852886	-234.975461	741.239832	380.672261	-327.241412	644.970658	388.221866	-405.669428	576.071574	315.660541	-338.712203	802.212569	103.663170	-231.114229	1005.580868	 74.060806	-271.182538	992.273198	 62.308564	-175.030920	420.491562	356.392727	-324.374834	463.353792	153.424794	-319.213814	428.358301	165.860443	-403.055471	877.626377	1445.147645	-443.585074	817.893600	1431.624592	-53.545711	909.022477	1432.233903	-218.019201	792.566617	1493.125662	-268.642328	729.330186	1313.174076	-13.550221	662.707315	1327.044111	-44.705619	668.704333	1248.560956	  4.678997	618.099932	1195.495017	 15.881672	595.769342	1184.164706	-62.897989	826.269974	1314.031078	-507.628391	756.622246	1274.103923	-515.583820	819.951260	1223.556268	-520.786926	773.799591	1155.790251	-550.464413	716.335101	1158.160117	-483.919709	702.433998	1099.825624	  7.222860	779.906524	1020.494192	-49.149172	732.310791	978.047163	-19.720332	880.003542	1111.504803	-489.416122	947.045594	1122.453729	-382.065308	957.140694	1064.665549	-420.118636	
8	  0.066667	889.098572	972.426695	-376.538016	874.896691	981.134720	-145.698916	723.864769	1002.216197	-319.903460	710.564198	1007.274939	-222.304520	842.721440	820.432237	-82.170371	922.548872	575.681449	-147.051528	848.796328	778.572759	-433.535051	892.421494	670.729235	-418.344955	818.749430	560.730386	-407.472694	974.204841	356.161473	-230.742751	934.262554	303.123070	-162.654164	930.453283	241.780336	-235.210604	753.258124	377.546760	-326.920090	656.708006	385.313335	-406.741026	586.567096	314.593423	-339.986875	786.256070	104.108527	-231.266329	989.205116	 73.389181	-270.941249	975.945487	 61.945013	-174.735926	430.790100	357.655544	-324.717682	472.889867	154.498952	-322.999419	440.146326	168.874172	-407.232857	875.756587	1438.460119	-444.035422	820.789186	1422.667109	-51.796587	910.253286	1426.211159	-218.107234	793.941124	1488.355513	-267.263792	735.195084	1301.145449	-12.190110	666.826368	1314.032996	-39.790651	675.351954	1235.331194	  7.359760	626.442118	1181.858936	 19.878380	601.740834	1170.549191	-57.878268	822.056537	1307.169575	-506.778400	751.841568	1266.922262	-513.675512	814.409916	1215.892002	-518.245660	767.265942	1149.124211	-548.422764	711.002703	1152.076593	-481.210443	711.730969	1087.294388	  8.927727	789.148736	1009.872356	-49.784482	742.840070	966.750842	-19.422140	873.323739	1100.796622	-490.408225	942.945631	1108.257471	-384.457065	950.416860	1050.718815	-423.071340	
